<svg width="60" height="61" fill="none" xmlns="http://www.w3.org/2000/svg"><path fill-rule="evenodd" clip-rule="evenodd" d="M4 30.69C4 16.402 15.632 4.807 29.998 4.807c14.366 0 25.998 11.595 25.998 25.881 0 2.132-.26 4.204-.748 6.186L43.18 22.992l-1.45-1.667-1.514 1.607-5.2 5.515-9.264-9.343-1.51-1.523-1.414 1.614L5.4 39.09A25.741 25.741 0 014 30.69zm3.19 12.43a26.007 26.007 0 0022.808 13.45 26.006 26.006 0 0023.878-15.627l-.224.194-12.041-13.854-5.103 5.413L35.09 34.2l-1.456-1.47-9.21-9.287L7.189 43.12zM29.997.808C13.438.808 0 14.178 0 30.689 0 47.2 13.438 60.571 29.998 60.571c16.56 0 29.998-13.37 29.998-29.882C59.996 14.18 46.557.808 29.998.808z" fill="#fff"/></svg>